<?xml version="1.0" encoding="iso-8859-1"?>
<!-- Uploaded to: SVG Repo, www.svgrepo.com, Generator: SVG Repo Mixer Tools -->
<svg fill="#000000" height="800px" width="800px" version="1.1" id="Layer_1" xmlns="http://www.w3.org/2000/svg" xmlns:xlink="http://www.w3.org/1999/xlink" 
	 viewBox="0 0 496 496" xml:space="preserve">
<g>
	<g>
		<path d="M303.696,109.792c0.2-1.904,0.304-3.832,0.304-5.792c0-22.28-13.112-41.504-32-50.52V0h-48v53.48
			c-18.888,9.008-32,28.24-32,50.52c0,1.96,0.104,3.888,0.304,5.792L87.36,424.616L99.056,448H104v48h16v-48h13.816l51.888-160H224
			v40h48v-40h38.288l51.888,160H376v48h16v-48h4.944l11.696-23.384L303.696,109.792z M240,16h16v32.64
			c-2.624-0.376-5.28-0.64-8-0.64c-2.72,0-5.376,0.264-8,0.64V16z M248,64c22.056,0,40,17.944,40,40c0,22.056-17.944,40-40,40
			c-22.056,0-40-17.944-40-40C208,81.944,225.944,64,248,64z M122.184,432h-13.24l-4.312-8.616l96.352-289.056
			c3.528,5.456,7.984,10.232,13.144,14.168L122.184,432z M256,312h-16v-64h16V312z M272,272v-40h-48v40h-33.104l37.496-115.616
			C234.504,158.688,241.096,160,248,160s13.496-1.312,19.608-3.616L305.104,272H272z M387.056,432h-13.24l-91.952-283.504
			c5.152-3.936,9.608-8.712,13.144-14.168l96.352,289.056L387.056,432z"/>
	</g>
</g>
</svg>