<?xml version="1.0" encoding="UTF-8" standalone="no"?>
<!-- Created with Inkscape (http://www.inkscape.org/) -->

<svg
   xmlns:dc="http://purl.org/dc/elements/1.1/"
   xmlns:cc="http://creativecommons.org/ns#"
   xmlns:rdf="http://www.w3.org/1999/02/22-rdf-syntax-ns#"
   xmlns:svg="http://www.w3.org/2000/svg"
   xmlns="http://www.w3.org/2000/svg"
   xmlns:sodipodi="http://sodipodi.sourceforge.net/DTD/sodipodi-0.dtd"
   xmlns:inkscape="http://www.inkscape.org/namespaces/inkscape"
   width="461.64059"
   height="800"
   id="svg2"
   version="1.1"
   inkscape:version="0.48.4 r9939"
   sodipodi:docname="Новый документ 1">
  <defs
     id="defs4" />
  <sodipodi:namedview
     id="base"
     pagecolor="#ffffff"
     bordercolor="#666666"
     borderopacity="1.0"
     inkscape:pageopacity="0.0"
     inkscape:pageshadow="2"
     inkscape:zoom="0.49497475"
     inkscape:cx="210.5004"
     inkscape:cy="460.2907"
     inkscape:document-units="px"
     inkscape:current-layer="layer1"
     showgrid="false"
     showguides="true"
     inkscape:guide-bbox="true"
     inkscape:snap-global="true"
     inkscape:snap-center="true"
     inkscape:snap-object-midpoints="true"
     fit-margin-top="0"
     fit-margin-left="0"
     fit-margin-right="0"
     fit-margin-bottom="0"
     inkscape:window-width="1920"
     inkscape:window-height="1018"
     inkscape:window-x="-8"
     inkscape:window-y="-8"
     inkscape:window-maximized="1" />
  <metadata
     id="metadata7">
    <rdf:RDF>
      <cc:Work
         rdf:about="">
        <dc:format>image/svg+xml</dc:format>
        <dc:type
           rdf:resource="http://purl.org/dc/dcmitype/StillImage" />
        <dc:title></dc:title>
      </cc:Work>
    </rdf:RDF>
  </metadata>
  <g
     inkscape:label="Layer 1"
     inkscape:groupmode="layer"
     id="layer1"
     transform="translate(762.40445,-176.6875)">
    <path
       style="font-size:medium;font-style:normal;font-variant:normal;font-weight:normal;font-stretch:normal;text-indent:0;text-align:start;text-decoration:none;line-height:normal;letter-spacing:normal;word-spacing:normal;text-transform:none;direction:ltr;block-progression:tb;writing-mode:lr-tb;text-anchor:start;baseline-shift:baseline;color:#000000;fill:#2fa1c2;fill-opacity:1;stroke:none;stroke-width:9;marker:none;visibility:visible;display:inline;overflow:visible;enable-background:accumulate;font-family:Sans;-inkscape-font-specification:Sans"
       d="m -539.5488,176.6875 -1.62029,200.94787 c -8.89041,4.9649 -15.18899,14.03919 -16.26767,24.66075 l -89.05092,0 c -1.56415,-9.90512 -10.13558,-17.46668 -20.48041,-17.46668 -11.45419,0 -20.73966,9.28546 -20.73966,20.73966 0,11.45419 9.28547,20.73966 20.73966,20.73966 10.33512,0 18.90458,-7.57524 20.48041,-17.46668 l 89.05092,0 c 1.06048,10.44236 7.161,19.38442 15.81399,24.4015 L -542.919,593.101 -596.03197,575.82875 a 3.6298035,3.6298035 0 0 0 -1.45826,-0.19444 3.6298035,3.6298035 0 0 0 -0.81014,7.09686 l 45.04395,14.64738 -202.60056,0 a 3.6298035,3.6298035 0 0 0 -0.35646,0 3.6338142,3.6338142 0 1 0 0.35646,7.25888 l 202.60056,0 -45.04395,14.64739 a 3.6328033,3.6328033 0 1 0 2.2684,6.90242 l 52.98335,-17.23985 -0.93976,113.64686 c -14.53889,8.29169 -26.36298,22.31589 -31.1095,46.27537 l 15.55475,8.5227 0,24.85519 c -5.69199,1.66828 -11.83685,3.7895 -18.73051,6.38393 -37.58911,14.14665 -48.05781,14.696 -87.10657,0 -19.00088,-7.15099 -32.36284,-11.80294 -46.30777,-12.24936 -13.94494,-0.44643 -27.89405,3.42564 -47.66882,12.34658 a 4.6706131,4.6706131 0 1 0 3.82388,8.5227 c 19.20446,-8.66364 31.51361,-11.92186 43.55328,-11.53644 12.03968,0.38543 24.41217,4.52747 43.29405,11.63366 39.7617,14.9643 55.50854,14.36767 93.68493,0 5.7256,-2.15483 10.78525,-3.93967 15.45753,-5.44416 l 0,20.70725 c -5.69199,1.66828 -11.83685,3.7895 -18.73051,6.38393 -37.58911,14.14664 -48.05781,14.696 -87.10657,0 -19.00088,-7.15099 -32.36284,-11.80294 -46.30777,-12.24936 -13.94494,-0.44643 -27.89405,3.45804 -47.66882,12.37898 a 4.6668903,4.6668903 0 1 0 3.82388,8.4903 c 19.20446,-8.66364 31.51361,-11.92186 43.55328,-11.53644 12.03968,0.38543 24.41217,4.55988 43.29405,11.66606 39.7617,14.96431 55.50854,14.36767 93.68493,0 5.7256,-2.15483 10.78525,-3.93966 15.45753,-5.44416 l 0,20.67485 c -5.69199,1.66828 -11.83685,3.7895 -18.73051,6.38393 -37.58911,14.14664 -48.05781,14.696 -87.10657,0 -19.00088,-7.15099 -32.36284,-11.77054 -46.30777,-12.21696 -13.94494,-0.44642 -27.89405,3.42564 -47.66882,12.34658 a 4.6668903,4.6668903 0 1 0 3.82388,8.4903 c 19.20446,-8.66364 31.51361,-11.92186 43.55328,-11.53644 12.03968,0.38543 24.41217,4.55988 43.29405,11.66606 39.7617,14.96431 55.50854,14.36767 93.68493,0 5.7256,-2.15483 10.78525,-3.93966 15.45753,-5.44416 l 0,25.5033 c -5.16656,1.59099 -10.77481,3.55811 -17.07781,5.93025 -37.88276,14.25716 -51.00673,14.83015 -90.41196,0 -37.88276,-14.25717 -51.43273,-17.58458 -90.41196,0 l 0,72.58881 451.99498,0 0,-72.58881 c -38.23453,-11.47479 -50.97432,-14.83013 -90.37955,0 -37.88276,14.25716 -51.00673,14.83015 -90.41196,0 -1.8956,-0.7134 -3.66621,-1.3645 -5.44416,-2.00916 l 0,-25.37367 c 1.25583,0.46328 2.47113,0.89653 3.79147,1.39344 39.7617,14.96431 55.54094,14.36767 93.71734,0 38.87725,-14.63143 49.1976,-11.36734 87.39822,0.0972 a 4.6698275,4.6698275 0 1 0 2.68968,-8.94398 c -38.26844,-11.48496 -53.46008,-14.93157 -93.39329,0.0972 -37.58911,14.14665 -48.05781,14.696 -87.10657,0 -2.45779,-0.92499 -4.81261,-1.7821 -7.09685,-2.59245 l 0,-20.41561 c 1.25583,0.46328 2.47113,0.89654 3.79147,1.39345 39.7617,14.96431 55.54094,14.36767 93.71734,0 38.87725,-14.63143 49.1976,-11.36735 87.39822,0.0972 a 4.6698275,4.6698275 0 1 0 2.68968,-8.94398 c -38.26844,-11.48496 -53.46008,-14.93157 -93.39329,0.0972 -37.58911,14.14665 -48.05781,14.696 -87.10657,0 -2.45779,-0.92499 -4.81261,-1.78211 -7.09685,-2.59246 l 0,-20.44801 c 1.25583,0.46329 2.47113,0.89654 3.79147,1.39345 39.7617,14.96431 55.54094,14.36767 93.71734,0 38.87725,-14.63143 49.1976,-11.33499 87.39822,0.12962 a 4.6698275,4.6698275 0 1 0 2.68968,-8.94398 c -38.26844,-11.48496 -53.46008,-14.93157 -93.39329,0.0972 -37.58911,14.14665 -48.05781,14.696 -87.10657,0 -2.45779,-0.92499 -4.81261,-1.78211 -7.09685,-2.59246 l 0,-28.64665 15.55474,-8.52271 c -4.74652,-23.95948 -16.5706,-37.98368 -31.10949,-46.27537 l -0.93976,-113.64686 52.98335,17.23985 c 1.80711,0.5941 3.9753,-0.49364 4.5692,-2.30081 0.5939,-1.80717 -0.49357,-4.0079 -2.3008,-4.60161 l -45.04395,-14.64739 127.41929,0 c 1.90037,0.0933 3.69814,-1.56703 3.79147,-3.46741 0.0933,-1.90036 -1.53464,-3.69814 -3.43501,-3.79147 -0.11872,-0.006 -0.23774,-0.006 -0.35646,0 l -127.41929,0 45.04395,-14.64738 c 1.61152,-0.48649 2.75098,-2.2162 2.56005,-3.88869 -0.19092,-1.6725 -1.69049,-3.09738 -3.3702,-3.20817 -0.49254,-0.0353 -0.99216,0.0313 -1.45825,0.19444 l -53.11298,17.27225 -1.29623,-159.85742 c 8.65299,-5.01708 14.75351,-13.95914 15.81399,-24.4015 l 32.01686,0 0,16.72135 114.81346,13.31875 0,-66.65857 -114.81346,13.35116 0,16.72135 -32.01686,0 c -1.07868,-10.6213 -7.37726,-19.69559 -16.26767,-24.66049 l -0.29165,-36.55365 c 8.66945,-0.87139 17.10241,-2.48808 25.27646,-4.76365 l 5.0553,16.13805 a 5.1854336,5.1854336 0 1 0 9.88374,-3.11095 l -5.0877,-16.13804 c 7.30738,-2.58891 14.35437,-5.73286 21.09613,-9.36526 l 8.58751,14.7122 a 5.1912428,5.1912428 0 1 0 8.97639,-5.21732 l -8.58752,-14.7122 c 6.59028,-4.15806 12.84714,-8.8068 18.6981,-13.90205 l 11.66606,12.4762 a 5.1854336,5.1854336 0 1 0 7.58294,-7.06445 l -11.66606,-12.4762 c 5.48456,-5.47641 10.53816,-11.3683 15.13347,-17.62871 l 14.1613,9.55969 a 5.2040196,5.2040196 0 1 0 5.83303,-8.61992 l -14.1289,-9.55969 c 4.13275,-6.52629 7.77933,-13.39634 10.88833,-20.54523 l 15.84639,6.15709 a 5.1964732,5.1964732 0 0 0 3.75907,-9.68931 l -15.81399,-6.12468 c 2.58299,-7.27671 4.64304,-14.78478 6.09227,-22.52198 l 16.68895,2.46284 a 5.1854336,5.1854336 0 1 0 1.52307,-10.24021 l -16.65654,-2.43043 c 0.67983,-5.80732 1.03698,-11.7067 1.03698,-17.69352 a 7.2596073,7.2596073 0 0 0 -7.38851,-7.38851 7.2596073,7.2596073 0 0 0 -7.16166,7.38851 c 0,48.52842 -25.22577,91.10863 -63.35318,115.33195 l -59.04322,-101.33268 -0.22684,-28.09576 -27.86892,0 z m 28.25779,48.96504 49.9048,85.71313 c -14.92079,7.95167 -31.49047,13.20017 -49.09466,15.13347 l -0.81014,-100.8466 z m 205.7115,345.54219 a 4.6668903,4.6668903 0 0 0 -4.5692,4.73124 l 0,36.48884 -34.02601,-39.53498 a 4.6668903,4.6668903 0 0 0 -8.19864,3.04614 l 0,49.06226 a 4.6668903,4.6668903 0 1 0 9.33284,0 l 0,-36.48885 33.9936,39.53498 a 4.6668903,4.6668903 0 0 0 8.23105,-3.04613 l 0,-49.06226 a 4.6668903,4.6668903 0 0 0 -4.76364,-4.73124 z"
       id="path2998"
       inkscape:connector-curvature="0"
       inkscape:export-xdpi="90"
       inkscape:export-ydpi="90" />
  </g>
</svg>
